<?xml version="1.0" encoding="utf-8"?>
<!-- Generator: Adobe Illustrator 19.1.0, SVG Export Plug-In . SVG Version: 6.00 Build 0)  -->
<svg version="1.1" id="Layer_1" xmlns="http://www.w3.org/2000/svg" xmlns:xlink="http://www.w3.org/1999/xlink" x="0px" y="0px"
	 viewBox="0 0 235 234.2" enable-background="new 0 0 235 234.2" xml:space="preserve">
<g>
	<path d="M132.2,234.7c-1.9-1.4-6.6-5.8-9.6-22.7c-0.5,15.6-3.8,20.8-5.2,23.6c-1.1-2.5-4.9-7.9-6.6-19.7c-2.7,11-5.5,14-6.9,15.9
		c-4.1-9-4.9-13.7-4.9-24.9C93.6,224.6,88.9,230,87,232.2c-0.5-2.5-3.3-9-0.3-24.4c-5.2,11.8-9.6,14.5-11.5,16.2
		c-0.3-2.5-2.2-8.2,1.9-21.1c-6.9,11.2-11.2,14.2-13.4,15.6c0-2.5-1.1-9.3,4.1-21.6C57.4,208.1,49.7,212,47.3,213
		c0.5-3,1.9-10.4,12.3-25.5c-11.5,10.7-18.4,10.7-21.1,11.5c1.1-2.5,2.2-8.2,11.5-18.6c-11.5,8.2-17.5,8.8-20.3,9
		c1.1-2.7,4.9-9.6,15.9-20c-14.2,6.6-22.5,6.6-25.2,6.9c1.4-2.2,4.4-7.7,14.2-14.5c-12.1,4.4-21.6,4.7-24.1,4.4
		c1.9-2.2,8.2-8.2,20-14.8c-12.6,3-18.1,1.4-20.3,0.8c1.6-1.6,7.1-7.4,16.7-11.2c-10.1-1.1-14-2.5-19.7-4.9
		c1.9-1.4,6.6-5.8,15.9-7.9c-12.6-2.5-18.6-5.8-21.6-7.7c2.5-1.1,8.2-4.1,20.6-4.9c-11.5-3-15.9-6.8-18.1-8.5
		c6-2.7,11.5-3.3,19.5-3.6c-9.3-4.4-12.3-10.1-14-11.8c2.5-0.5,8.5-1.9,22.5,0.3c-13.4-7.1-19.2-12.1-20.8-14.2
		c2.2-0.3,9.6,0.5,20.3,3.3c-10.1-7.7-13.2-14-14.5-16.2c2.5,0,9-0.5,21.9,4.9c-6.6-7.4-9.9-14.5-11-16.4c1.9,0.5,7.4-1.6,16.2,4.7
		c-6.3-9-7.1-15.9-7.7-18.1c1.9,0.8,7.9,1.4,16.7,7.4c-5.8-9-6.6-15.1-6.9-17c2.2,0.8,9,3.3,18.1,11.2C61,31.7,60.7,25.9,60.7,24
		c2.2,1.4,7.7,1.6,14.8,12.3c-3.6-11.8-3.6-19.5-3.3-21.9c1.9,1.6,7.4,5.8,13.2,15.9c-1.4-10.7,0-17,0.5-18.9
		c1.9,1.9,7.4,5.8,12.1,20.3c0-13.7,1.4-17.3,3.3-22.7c1.4,2.2,6.6,5.2,8.8,17c1.4-12.6,4.7-18.9,6.6-21.1c1.4,1.6,4.9,6,5.5,20.3
		c2.5-10.1,6.3-14,7.7-15.3c0.5,0.8,4.4,6.6,4.7,16.7c2.5-7.4,9.3-12.1,11-12.9c0.5,1.1,1.9,7.7,0.5,18.6
		c6.6-14.2,12.1-17.3,14-18.1c0.5,1.4,0.3,9.6-2.7,19.5c5.8-9,10.7-9.3,12.3-9.6c0.5,1.4-0.3,8.8-4.1,19.5
		c8.5-9.9,17.5-14,19.2-14.2c0.3,1.6-1.6,9.9-9,22.5c12.9-12.1,19.5-12.3,21.1-12.6c-0.3,1.6-2.5,8.5-8.8,17.5
		c6.3-4.4,14-4.4,15.3-4.1c-0.3,1.4-1.9,8.2-8.5,15.1c9.9-4.1,17.5-3.3,18.9-3c-0.3,1.4-2.5,6.3-7.9,11c9.3-1.9,16.2-0.8,17.3-0.3
		c-1.1,1.6-9.3,7.9-20.3,13.4c12.1-2.2,19.2-0.5,20.3,0.3c-0.8,1.6-3.3,7.7-17.8,12.6c11.8-1.4,17.8,0,21.6,3.3
		c-1.4,1.6-4.4,6.6-20,9.3c14.2,0.5,23.6,4.9,25.8,6.9c-1.6,1.4-6,4.4-20.6,4.9c12.6,2.2,15.3,6.6,16.7,8.2
		c-4.1,3-10.4,3.3-24.9,2.7c16.4,5.2,18.6,11,19.7,12.9c-2.2,1.4-8.8,1.1-24.1-0.5c13.7,6.6,19.5,11.2,20.5,13.7
		c-2.5,0.8-9-0.5-20-3.8c10.1,8.5,15.6,14.8,16.2,17.3c-1.4,0.5-7.4,1.1-22.2-6.3c12.3,9.9,12.1,16.7,12.3,18.4
		c-1.6,0.3-8.5,1.1-23.6-9.3c13.2,14.2,14,21.1,14.2,23c-1.9-0.3-8.5-0.8-21.1-12.3c10.4,14.8,12.1,21.4,11.8,23.3
		c-2.2-0.3-9.3-3-23.3-19.7c8.5,16.2,8.2,22.2,7.7,23.8c-1.9-0.3-7.1-2.2-15.1-15.1c6,16.4,5.2,23,4.4,24.7
		c-1.6-1.1-7.4-3.8-14.5-18.4c3.6,14.8,2.7,19.7,1.9,21.1c-1.9-1.1-8.8-6.3-14-19.2C134.9,221.8,135.5,228.7,132.2,234.7z"/>
</g>
</svg>
